<?xml version="1.0" encoding="UTF-8" standalone="no"?>
<!-- Created with Inkscape (http://www.inkscape.org/) -->

<svg
   xmlns:dc="http://purl.org/dc/elements/1.1/"
   xmlns:cc="http://creativecommons.org/ns#"
   xmlns:rdf="http://www.w3.org/1999/02/22-rdf-syntax-ns#"
   xmlns:svg="http://www.w3.org/2000/svg"
   xmlns="http://www.w3.org/2000/svg"
   xmlns:sodipodi="http://sodipodi.sourceforge.net/DTD/sodipodi-0.dtd"
   xmlns:inkscape="http://www.inkscape.org/namespaces/inkscape"
   width="210mm"
   height="297mm"
   viewBox="0 0 744.09448819 1052.3622047"
   id="svg2"
   version="1.1"
   inkscape:version="0.91 r13725"
   sodipodi:docname="vector.svg">
  <defs
     id="defs4" />
  <sodipodi:namedview
     id="base"
     pagecolor="#ffffff"
     bordercolor="#666666"
     borderopacity="1.0"
     inkscape:pageopacity="0.0"
     inkscape:pageshadow="2"
     inkscape:zoom="0.49497475"
     inkscape:cx="142.99362"
     inkscape:cy="198.37582"
     inkscape:document-units="px"
     inkscape:current-layer="layer1"
     showgrid="false"
     inkscape:window-width="1366"
     inkscape:window-height="705"
     inkscape:window-x="-8"
     inkscape:window-y="-8"
     inkscape:window-maximized="1"
     showguides="false" />
  <metadata
     id="metadata7">
    <rdf:RDF>
      <cc:Work
         rdf:about="">
        <dc:format>image/svg+xml</dc:format>
        <dc:type
           rdf:resource="http://purl.org/dc/dcmitype/StillImage" />
        <dc:title />
      </cc:Work>
    </rdf:RDF>
  </metadata>
  <g
     inkscape:label="Layer 1"
     inkscape:groupmode="layer"
     id="layer1">
    <g
       id="g3353"
       transform="translate(522.85716,5.8718031)">
      <rect
         y="15.219348"
         x="-497.14285"
         height="350"
         width="900"
         id="rect3347"
         style="opacity:1;fill:#fc7368;fill-opacity:1;stroke:none;stroke-width:8;stroke-opacity:1" />
      <text
         sodipodi:linespacing="125%"
         id="text3349"
         y="278.33597"
         x="-111.04475"
         style="font-style:normal;font-weight:normal;font-size:284.19348145px;line-height:125%;font-family:sans-serif;letter-spacing:0px;word-spacing:0px;fill:#ffffff;fill-opacity:1;stroke:none;stroke-width:1px;stroke-linecap:butt;stroke-linejoin:miter;stroke-opacity:1"
         xml:space="preserve"><tspan
           style="font-style:normal;font-variant:normal;font-weight:normal;font-stretch:normal;font-family:'Tw Cen MT';-inkscape-font-specification:'Tw Cen MT';fill:#ffffff"
           y="278.33597"
           x="-111.04475"
           id="tspan3351"
           sodipodi:role="line">1</tspan></text>
    </g>
    <g
       id="g3405"
       transform="matrix(0.22483629,0,0,0.22483629,455.85546,338.38819)">
      <rect
         y="406.64792"
         x="-140"
         height="605.71429"
         width="562.85712"
         id="rect3403"
         style="opacity:1;fill:#ffffff;fill-opacity:1;stroke:none;stroke-width:8;stroke-opacity:1" />
      <path
         style="fill:#fc7368;fill-opacity:1"
         d="m -296.15004,1199.3586 c -12.26077,-0.2101 -30.75,-1.8899 -30.75,-2.7937 0,-0.1296 2.26125,-2.1661 5.025,-4.5256 5.72887,-4.8909 17.93047,-16.9453 22.67909,-22.4055 31.98775,-36.7812 51.5614,-83.0762 57.93301,-137.0216 2.86146,-24.2263 2.86257,-51.71054 0.003,-72.11474 l -0.43653,-3.1146 -2.8119,-4.6854 c -38.35125,-63.902 -61.08133,-134.9866 -66.92133,-209.2853 -1.08195,-13.765 -1.21755,-17.9533 -1.21894,-37.65 -0.002,-19.6652 0.1557,-24.6241 1.21163,-38.25 4.35747,-56.2294 18.74281,-111.9036 42.05207,-162.75 3.56433,-7.7752 11.05122,-22.6767 15.14802,-30.15 48.32517,-88.1529 122.56329,-158.58066 212.999879,-202.06737 68.130451,-32.76076 143.278441,-48.87071 219.537001,-47.06356 32.25132,0.76428 62.02077,4.30306 92.25,10.96601 50.8371,11.20521 98.4864,30.09356 142.95,56.66582 56.70975,33.89085 106.10781,79.3903 144.53817,133.131 69.61695,97.3519 99.94503,215.268 86.28261,335.4681 -7.68705,67.6294 -30.32205,134.048 -65.55996,192.3746 -34.59285,57.25884 -80.84712,106.79714 -135.41082,145.02484 -65.25441,45.7177 -140.892,74.3913 -220.2,83.4761 -84.23118,9.6487 -169.53789,-2.8222 -246.000001,-35.9625 -3.3,-1.4303 -6.81,-2.7926 -7.8,-3.0273 -5.02302,-1.191 -9.61197,0.014 -14.82036,3.8922 -17.6226,13.1212 -52.8606,25.5437 -99.179639,34.9638 -39.98565,8.132 -82.00791,13.9164 -116.61825,16.0527 -6.71097,0.4142 -28.61577,1.1308 -30.08175,0.9841 -0.33,-0.033 -2.49,-0.092 -4.8,-0.1321 z m 359.25,-224.44744 c 15.30474,-3.6076 27.02823,-14.217 31.93731,-28.9022 0.56937,-1.7032 1.25265,-4.4468 1.51845,-6.0968 0.2658,-1.65 2.27976,-23.6062 4.47549,-48.7917 2.1957,-25.1854 4.08489,-45.9417 4.19817,-46.125 0.14949,-0.2419 12.01188,-0.3333 43.2477,-0.3333 36.47385,0 43.06614,0.064 43.20177,0.4171 0.088,0.2294 -1.46682,19.0957 -3.45522,41.925 -1.9884,22.8294 -3.69714,42.4529 -3.79722,43.6079 -0.25335,2.9242 0.37041,8.6798 1.36554,12.6 3.10743,12.2414 11.67057,22.761 22.95801,28.2034 7.10523,3.4258 12.51204,4.5137 21.15,4.2555 6.04374,-0.1808 8.50923,-0.6076 13.35,-2.3112 14.80437,-5.2101 25.89903,-18.534 28.34526,-34.0406 0.15678,-0.9939 2.04024,-21.9896 4.18545,-46.6571 2.14518,-24.6675 4.00587,-45.525 4.13481,-46.35 l 0.23448,-1.5 39.45,-0.1621 39.45,-0.1621 2.99001,-0.6823 c 13.93818,-3.1808 25.29699,-12.4982 30.80133,-25.2656 2.73723,-6.3491 3.71844,-11.9085 3.46422,-19.6279 -0.18387,-5.5826 -0.5817,-7.8986 -2.18691,-12.7321 -2.19402,-6.6062 -5.92116,-12.4391 -11.16408,-17.4714 -4.95876,-4.7596 -10.10577,-7.8451 -16.65498,-9.9842 -6.17367,-2.0165 -4.97187,-1.9623 -43.46187,-1.9623 -29.48607,0 -34.78095,-0.064 -34.91745,-0.4192 -0.1938,-0.5051 7.24446,-85.8192 7.52139,-86.2673 0.13263,-0.2146 9.67404,-0.3137 30.25104,-0.3143 19.96998,0 30.96342,-0.1113 32.7573,-0.3301 18.19305,-2.2181 33.15207,-16.0031 37.0935,-34.1821 0.58215,-2.6849 0.68205,-4.0449 0.69333,-9.437 0.0147,-7.0789 -0.32331,-9.386 -2.1543,-14.7 -2.27229,-6.5946 -5.91027,-12.2656 -11.07423,-17.2627 -4.87353,-4.7161 -10.05432,-7.8285 -16.67736,-10.0189 -6.36624,-2.1056 -5.76534,-2.069 -36.00594,-2.1948 -25.27719,-0.1051 -27.22494,-0.1494 -27.22401,-0.6184 0,-0.2778 1.61274,-18.9327 3.58266,-41.4552 1.96995,-22.5225 3.67146,-42.0975 3.78114,-43.5 0.56064,-7.1681 -1.73244,-16.8176 -5.6049,-23.5857 -5.17098,-9.0377 -14.17662,-16.4509 -23.95989,-19.7229 -4.84845,-1.6216 -8.09136,-2.0994 -14.25,-2.0994 -6.15864,0 -9.40155,0.4778 -14.25,2.0994 -9.69987,3.2442 -18.37788,10.3152 -23.74332,19.3466 -2.51712,4.2369 -4.56825,9.9892 -5.33505,14.962 -0.16539,1.0725 -2.06046,22.2 -4.21125,46.95 -2.15079,24.75 -3.98628,45.5738 -4.07883,46.275 l -0.1683,1.275 -43.33164,0 c -42.1932,0 -43.33161,-0.015 -43.33161,-0.5634 0,-0.3098 1.63932,-19.1086 3.64293,-41.775 3.89769,-44.0934 4.09107,-47.3544 3.12888,-52.7616 -1.57764,-8.8661 -5.65065,-16.6147 -12.15309,-23.1205 -6.42387,-6.4272 -13.19781,-10.0894 -22.21872,-12.012 -4.24077,-0.9038 -12.789,-0.9738 -17.1,-0.14 -9.11064,1.7621 -16.17828,5.5306 -22.81008,12.1624 -6.59772,6.5978 -10.24044,13.3574 -11.96895,22.2101 -0.39897,2.0434 -1.98597,18.9595 -4.51722,48.15 -2.1462,24.75 -3.98181,45.6347 -4.07913,46.4105 l -0.17691,1.4104 -38.7488714,0.1021 c -35.7173696,0.094 -38.9717996,0.144 -41.5988396,0.6392 -3.37593,0.6363 -8.11233,2.1595 -11.31201,3.6379 -5.56698,2.5721 -12.15762,8.0081 -16.14975,13.3204 -3.5253,4.6912 -6.53616,11.4584 -7.82133,17.5795 -0.87078,4.1473 -0.79524,14.1254 0.13959,18.437 3.94143,18.179 18.90045,31.964 37.0935,34.1821 1.81239,0.221 13.82298,0.3295 36.5344196,0.3301 28.2896414,0 33.8601314,0.068 33.9913514,0.4098 0.18822,0.4905 -7.25505,85.853 -7.524,86.2881 -0.12402,0.2007 -10.64103,0.3029 -31.1666114,0.3029 -34.3071296,0 -33.5648096,-0.037 -39.6847496,1.9623 -6.54921,2.1392 -11.69622,5.2246 -16.65498,9.9842 -5.24292,5.0323 -8.97006,10.8652 -11.16408,17.4714 -1.60521,4.8335 -2.00304,7.1495 -2.18691,12.7321 -0.25422,7.7194 0.72699,13.2788 3.46422,19.6279 5.10168,11.8335 15.35754,20.8482 27.84804,24.4781 5.47857,1.5922 6.58818,1.644 35.1662096,1.644 21.9223214,0 26.4725114,0.069 26.6013014,0.4049 0.0855,0.2228 -1.49586,19.089 -3.51408,41.925 -4.0398604,45.7111 -4.1517604,47.7095 -3.00084,53.599 3.61341,18.4904 18.08574,32.1402 37.09071,34.9825 0.495,0.074 3.6675,0.091 7.05,0.037 4.84593,-0.077 6.69072,-0.2254 8.7,-0.699 z m 49.91391,-218.5849 c -0.2022,-0.5269 7.22964,-85.7682 7.51854,-86.2357 0.14547,-0.2354 12.39111,-0.3284 43.24467,-0.3284 36.81504,0 43.06527,0.061 43.20447,0.4241 0.19605,0.5109 -7.24089,85.8056 -7.521,86.2588 -0.13626,0.2204 -13.31769,0.3171 -43.23771,0.3171 -37.36317,0 -43.06377,-0.058 -43.20897,-0.4359 z"
         id="path3388"
         inkscape:connector-curvature="0" />
    </g>
    <g
       id="g4244"
       inkscape:export-filename="C:\xampp\htdocs\comprofila\assets\img\highlights.png"
       inkscape:export-xdpi="90"
       inkscape:export-ydpi="90"
       transform="translate(-782.85714,17.142857)">
      <rect
         y="375.93365"
         x="812.85712"
         height="150"
         width="313"
         id="rect3420"
         style="opacity:1;fill:#e6e6e6;fill-opacity:1;stroke:none;stroke-width:8;stroke-opacity:1" />
      <text
         sodipodi:linespacing="125%"
         id="text3422"
         y="461.99811"
         x="968.23407"
         style="font-style:normal;font-weight:normal;font-size:40px;line-height:125%;font-family:sans-serif;letter-spacing:0px;word-spacing:0px;fill:#fc7368;fill-opacity:1;stroke:none;stroke-width:1px;stroke-linecap:butt;stroke-linejoin:miter;stroke-opacity:1"
         xml:space="preserve"><tspan
           y="461.99811"
           x="968.23407"
           id="tspan3424"
           sodipodi:role="line"
           style="text-align:center;text-anchor:middle">Highlights</tspan></text>
    </g>
    <rect
       style="opacity:1;fill:#ff0000;fill-opacity:0;stroke:none;stroke-width:8;stroke-opacity:1"
       id="rect3439"
       width="725.71429"
       height="520"
       x="-485.71429"
       y="-179.06636" />
    <g
       id="g3359"
       inkscape:export-xdpi="90"
       inkscape:export-ydpi="90"
       transform="translate(-782.85714,17.142857)">
      <rect
         y="379.10315"
         x="1428.3557"
         height="150"
         width="150"
         id="rect3353"
         style="opacity:1;fill:#fc7368;fill-opacity:1;stroke:none;stroke-width:8;stroke-opacity:1" />
      <text
         sodipodi:linespacing="125%"
         id="text3355"
         y="468.43909"
         x="1463.4143"
         style="font-style:normal;font-weight:normal;font-size:40px;line-height:125%;font-family:sans-serif;letter-spacing:0px;word-spacing:0px;fill:#ffffff;fill-opacity:1;stroke:none;stroke-width:1px;stroke-linecap:butt;stroke-linejoin:miter;stroke-opacity:1"
         xml:space="preserve"><tspan
           y="468.43909"
           x="1463.4143"
           id="tspan3357"
           sodipodi:role="line">unit</tspan></text>
    </g>
    <g
       id="g3406"
       inkscape:export-xdpi="90"
       inkscape:export-ydpi="90"
       transform="translate(-782.85714,17.142857)">
      <rect
         style="opacity:1;fill:#e6e6e6;fill-opacity:1;stroke:none;stroke-width:8;stroke-opacity:1"
         id="rect3359"
         width="672.5"
         height="261.52777"
         x="814.63239"
         y="627.80139" />
      <path
         style="fill:#ffffff"
         d="m 1055.2598,852.03181 c -4.7108,-1.898 -5.2675,-5.9504 -2.3725,-17.26976 6.4011,-25.02792 21.1976,-46.48042 41.634,-60.3623 8.0517,-5.46932 8.6757,-5.71883 10.8344,-4.33224 1.2598,0.80922 5.5855,3.68099 9.6127,6.3817 10.8323,7.26442 18.9945,9.82685 32.976,10.35239 17.7895,0.66869 29.3408,-2.87474 43.3791,-13.30681 3.298,-2.45078 6.5068,-4.45596 7.1306,-4.45596 2.1231,0 15.9693,10.13649 22.3043,16.32853 12.4563,12.17529 21.5445,27.13788 26.5445,43.7025 3.9125,12.96205 4.2974,17.87415 1.6626,21.21895 l -2.1663,2.75 -94.6774,-0.063 c -52.0726,-0.035 -95.6605,-0.4594 -96.862,-0.9436 z m 87.6352,-74.06508 c -12.5868,-1.82781 -24.6979,-8.51986 -34.3608,-18.98626 -20.2234,-21.90521 -19.3828,-56.05755 1.9074,-77.49185 22.8636,-23.0183 57.7554,-23.21766 80.513,-0.46002 11.978,11.97799 17.651,26.77456 16.6816,43.51023 -0.8964,15.4779 -6.5657,27.48139 -18.0453,38.20712 -12.6878,11.8547 -30.3133,17.59981 -46.6959,15.22078 z"
         id="path3387"
         inkscape:connector-curvature="0" />
    </g>
    <g
       id="g3420"
       transform="matrix(0.87139489,0,0,0.87139489,1520.4377,-7.7641395)"
       inkscape:export-xdpi="90"
       inkscape:export-ydpi="90">
      <g
         id="g3410"
         transform="matrix(0.20525009,0,0,0.20525009,-559.1187,-9.5465326)">
        <rect
           y="406.64792"
           x="-140"
           height="605.71429"
           width="562.85712"
           id="rect3412"
           style="opacity:1;fill:#ffffff;fill-opacity:1;stroke:none;stroke-width:8;stroke-opacity:1" />
        <path
           style="fill:#fc7368;fill-opacity:1"
           d="m -296.15004,1199.3586 c -12.26077,-0.2101 -30.75,-1.8899 -30.75,-2.7937 0,-0.1296 2.26125,-2.1661 5.025,-4.5256 5.72887,-4.8909 17.93047,-16.9453 22.67909,-22.4055 31.98775,-36.7812 51.5614,-83.0762 57.93301,-137.0216 2.86146,-24.2263 2.86257,-51.71054 0.003,-72.11474 l -0.43653,-3.1146 -2.8119,-4.6854 c -38.35125,-63.902 -61.08133,-134.9866 -66.92133,-209.2853 -1.08195,-13.765 -1.21755,-17.9533 -1.21894,-37.65 -0.002,-19.6652 0.1557,-24.6241 1.21163,-38.25 4.35747,-56.2294 18.74281,-111.9036 42.05207,-162.75 3.56433,-7.7752 11.05122,-22.6767 15.14802,-30.15 48.32517,-88.1529 122.56329,-158.58066 212.999879,-202.06737 68.130451,-32.76076 143.278441,-48.87071 219.537001,-47.06356 32.25132,0.76428 62.02077,4.30306 92.25,10.96601 50.8371,11.20521 98.4864,30.09356 142.95,56.66582 56.70975,33.89085 106.10781,79.3903 144.53817,133.131 69.61695,97.3519 99.94503,215.268 86.28261,335.4681 -7.68705,67.6294 -30.32205,134.048 -65.55996,192.3746 -34.59285,57.25884 -80.84712,106.79714 -135.41082,145.02484 -65.25441,45.7177 -140.892,74.3913 -220.2,83.4761 -84.23118,9.6487 -169.53789,-2.8222 -246.000001,-35.9625 -3.3,-1.4303 -6.81,-2.7926 -7.8,-3.0273 -5.02302,-1.191 -9.61197,0.014 -14.82036,3.8922 -17.6226,13.1212 -52.8606,25.5437 -99.179639,34.9638 -39.98565,8.132 -82.00791,13.9164 -116.61825,16.0527 -6.71097,0.4142 -28.61577,1.1308 -30.08175,0.9841 -0.33,-0.033 -2.49,-0.092 -4.8,-0.1321 z m 359.25,-224.44744 c 15.30474,-3.6076 27.02823,-14.217 31.93731,-28.9022 0.56937,-1.7032 1.25265,-4.4468 1.51845,-6.0968 0.2658,-1.65 2.27976,-23.6062 4.47549,-48.7917 2.1957,-25.1854 4.08489,-45.9417 4.19817,-46.125 0.14949,-0.2419 12.01188,-0.3333 43.2477,-0.3333 36.47385,0 43.06614,0.064 43.20177,0.4171 0.088,0.2294 -1.46682,19.0957 -3.45522,41.925 -1.9884,22.8294 -3.69714,42.4529 -3.79722,43.6079 -0.25335,2.9242 0.37041,8.6798 1.36554,12.6 3.10743,12.2414 11.67057,22.761 22.95801,28.2034 7.10523,3.4258 12.51204,4.5137 21.15,4.2555 6.04374,-0.1808 8.50923,-0.6076 13.35,-2.3112 14.80437,-5.2101 25.89903,-18.534 28.34526,-34.0406 0.15678,-0.9939 2.04024,-21.9896 4.18545,-46.6571 2.14518,-24.6675 4.00587,-45.525 4.13481,-46.35 l 0.23448,-1.5 39.45,-0.1621 39.45,-0.1621 2.99001,-0.6823 c 13.93818,-3.1808 25.29699,-12.4982 30.80133,-25.2656 2.73723,-6.3491 3.71844,-11.9085 3.46422,-19.6279 -0.18387,-5.5826 -0.5817,-7.8986 -2.18691,-12.7321 -2.19402,-6.6062 -5.92116,-12.4391 -11.16408,-17.4714 -4.95876,-4.7596 -10.10577,-7.8451 -16.65498,-9.9842 -6.17367,-2.0165 -4.97187,-1.9623 -43.46187,-1.9623 -29.48607,0 -34.78095,-0.064 -34.91745,-0.4192 -0.1938,-0.5051 7.24446,-85.8192 7.52139,-86.2673 0.13263,-0.2146 9.67404,-0.3137 30.25104,-0.3143 19.96998,0 30.96342,-0.1113 32.7573,-0.3301 18.19305,-2.2181 33.15207,-16.0031 37.0935,-34.1821 0.58215,-2.6849 0.68205,-4.0449 0.69333,-9.437 0.0147,-7.0789 -0.32331,-9.386 -2.1543,-14.7 -2.27229,-6.5946 -5.91027,-12.2656 -11.07423,-17.2627 -4.87353,-4.7161 -10.05432,-7.8285 -16.67736,-10.0189 -6.36624,-2.1056 -5.76534,-2.069 -36.00594,-2.1948 -25.27719,-0.1051 -27.22494,-0.1494 -27.22401,-0.6184 0,-0.2778 1.61274,-18.9327 3.58266,-41.4552 1.96995,-22.5225 3.67146,-42.0975 3.78114,-43.5 0.56064,-7.1681 -1.73244,-16.8176 -5.6049,-23.5857 -5.17098,-9.0377 -14.17662,-16.4509 -23.95989,-19.7229 -4.84845,-1.6216 -8.09136,-2.0994 -14.25,-2.0994 -6.15864,0 -9.40155,0.4778 -14.25,2.0994 -9.69987,3.2442 -18.37788,10.3152 -23.74332,19.3466 -2.51712,4.2369 -4.56825,9.9892 -5.33505,14.962 -0.16539,1.0725 -2.06046,22.2 -4.21125,46.95 -2.15079,24.75 -3.98628,45.5738 -4.07883,46.275 l -0.1683,1.275 -43.33164,0 c -42.1932,0 -43.33161,-0.015 -43.33161,-0.5634 0,-0.3098 1.63932,-19.1086 3.64293,-41.775 3.89769,-44.0934 4.09107,-47.3544 3.12888,-52.7616 -1.57764,-8.8661 -5.65065,-16.6147 -12.15309,-23.1205 -6.42387,-6.4272 -13.19781,-10.0894 -22.21872,-12.012 -4.24077,-0.9038 -12.789,-0.9738 -17.1,-0.14 -9.11064,1.7621 -16.17828,5.5306 -22.81008,12.1624 -6.59772,6.5978 -10.24044,13.3574 -11.96895,22.2101 -0.39897,2.0434 -1.98597,18.9595 -4.51722,48.15 -2.1462,24.75 -3.98181,45.6347 -4.07913,46.4105 l -0.17691,1.4104 -38.7488714,0.1021 c -35.7173696,0.094 -38.9717996,0.144 -41.5988396,0.6392 -3.37593,0.6363 -8.11233,2.1595 -11.31201,3.6379 -5.56698,2.5721 -12.15762,8.0081 -16.14975,13.3204 -3.5253,4.6912 -6.53616,11.4584 -7.82133,17.5795 -0.87078,4.1473 -0.79524,14.1254 0.13959,18.437 3.94143,18.179 18.90045,31.964 37.0935,34.1821 1.81239,0.221 13.82298,0.3295 36.5344196,0.3301 28.2896414,0 33.8601314,0.068 33.9913514,0.4098 0.18822,0.4905 -7.25505,85.853 -7.524,86.2881 -0.12402,0.2007 -10.64103,0.3029 -31.1666114,0.3029 -34.3071296,0 -33.5648096,-0.037 -39.6847496,1.9623 -6.54921,2.1392 -11.69622,5.2246 -16.65498,9.9842 -5.24292,5.0323 -8.97006,10.8652 -11.16408,17.4714 -1.60521,4.8335 -2.00304,7.1495 -2.18691,12.7321 -0.25422,7.7194 0.72699,13.2788 3.46422,19.6279 5.10168,11.8335 15.35754,20.8482 27.84804,24.4781 5.47857,1.5922 6.58818,1.644 35.1662096,1.644 21.9223214,0 26.4725114,0.069 26.6013014,0.4049 0.0855,0.2228 -1.49586,19.089 -3.51408,41.925 -4.0398604,45.7111 -4.1517604,47.7095 -3.00084,53.599 3.61341,18.4904 18.08574,32.1402 37.09071,34.9825 0.495,0.074 3.6675,0.091 7.05,0.037 4.84593,-0.077 6.69072,-0.2254 8.7,-0.699 z m 49.91391,-218.5849 c -0.2022,-0.5269 7.22964,-85.7682 7.51854,-86.2357 0.14547,-0.2354 12.39111,-0.3284 43.24467,-0.3284 36.81504,0 43.06527,0.061 43.20447,0.4241 0.19605,0.5109 -7.24089,85.8056 -7.521,86.2588 -0.13626,0.2204 -13.31769,0.3171 -43.23771,0.3171 -37.36317,0 -43.06377,-0.058 -43.20897,-0.4359 z"
           id="path3414"
           inkscape:connector-curvature="0" />
      </g>
      <text
         sodipodi:linespacing="125%"
         id="text3416"
         y="165.80321"
         x="-403.41281"
         style="font-style:normal;font-weight:normal;font-size:107.85877228px;line-height:125%;font-family:sans-serif;letter-spacing:0px;word-spacing:0px;fill:#fc7368;fill-opacity:1;stroke:none;stroke-width:1px;stroke-linecap:butt;stroke-linejoin:miter;stroke-opacity:1"
         xml:space="preserve"><tspan
           style="font-style:normal;font-variant:normal;font-weight:bold;font-stretch:normal;font-family:sans-serif;-inkscape-font-specification:'sans-serif Bold'"
           y="165.80321"
           x="-403.41281"
           id="tspan3418"
           sodipodi:role="line">Company</tspan></text>
    </g>
    <g
       id="g3374"
       transform="translate(17.142857,-11.428571)"
       inkscape:export-xdpi="90"
       inkscape:export-ydpi="90">
      <rect
         y="656.47205"
         x="720.34668"
         height="250"
         width="250"
         id="rect3368"
         style="opacity:1;fill:#e6e6e6;fill-opacity:1;stroke:none;stroke-width:8;stroke-opacity:1" />
      <path
         inkscape:connector-curvature="0"
         id="path3370"
         d="m 757.25482,867.57766 c -4.33981,-1.74852 -4.85266,-5.48178 -2.18566,-15.90969 5.89699,-23.05685 19.52819,-42.81987 38.35513,-55.60849 7.41759,-5.03858 7.99245,-5.26844 9.98114,-3.99105 1.16059,0.74549 5.14562,3.39109 8.85566,5.87911 9.9792,6.69231 17.49859,9.05294 30.37899,9.53709 16.38849,0.61603 27.03007,-2.64834 39.96279,-12.25884 3.03827,-2.25777 5.99436,-4.10503 6.56903,-4.10503 1.9559,0 14.71167,9.3382 20.54776,15.04258 11.47531,11.21643 19.84781,25.00065 24.45401,40.26073 3.6044,11.94123 3.959,16.46648 1.5317,19.54786 l -1.9957,2.53342 -87.22118,-0.058 c -47.97165,-0.0322 -88.1268,-0.42322 -89.23367,-0.86929 z m 80.73352,-68.23211 c -11.59553,-1.68386 -22.75283,-7.84888 -31.65473,-17.49101 -18.63071,-20.18007 -17.85631,-51.64275 1.75718,-71.389 21.06299,-21.20551 53.2069,-21.38917 74.17223,-0.4238 11.03468,11.03467 16.26093,24.66594 15.36785,40.0836 -0.8258,14.25895 -6.04862,25.31711 -16.62415,35.19813 -11.68858,10.92109 -27.92599,16.21375 -43.01838,14.02208 z"
         style="fill:#ffffff" />
    </g>
    <g
       id="g3487"
       inkscape:export-xdpi="90"
       inkscape:export-ydpi="90">
      <rect
         y="930.15387"
         x="31.775246"
         height="261.52777"
         width="672.5"
         id="rect3386"
         style="opacity:1;fill:#e6e6e6;fill-opacity:1;stroke:none;stroke-width:8;stroke-opacity:1" />
      <path
         inkscape:connector-curvature="0"
         id="path3389"
         d="m 334.33219,1005.1466 c -1.65987,-0.6687 -1.85602,-2.0966 -0.83596,-6.08503 2.25546,-8.81875 7.46908,-16.37771 14.66994,-21.26904 2.83705,-1.92713 3.05692,-2.01504 3.81755,-1.52647 0.44389,0.28515 1.96807,1.29706 3.38708,2.24863 3.81681,2.55965 6.6928,3.46259 11.61925,3.64769 6.26821,0.23564 10.33837,-1.0129 15.28482,-4.68864 1.16207,-0.86364 2.29271,-1.57014 2.51251,-1.57014 0.74808,0 5.62685,3.57169 7.85902,5.75344 4.38904,4.29005 7.5913,9.56217 9.35308,15.39885 1.37859,4.56731 1.51421,6.29801 0.58583,7.47651 l -0.76331,0.9691 -33.36002,-0.022 c -18.34803,-0.012 -33.70644,-0.1618 -34.12979,-0.3325 z m 30.87868,-26.09718 c -4.43502,-0.64403 -8.70242,-3.00202 -12.10719,-6.68991 -7.12581,-7.7184 -6.82962,-19.75216 0.67208,-27.30462 8.0561,-8.11061 20.35039,-8.18086 28.36914,-0.1621 4.2205,4.2205 6.2194,9.43415 5.87783,15.33103 -0.31585,5.45371 -2.31345,9.68319 -6.35834,13.46248 -4.47061,4.17702 -10.68103,6.20138 -16.45352,5.36312 z"
         style="fill:#ffffff" />
      <path
         style="fill:#ffffff"
         d="m 420.45476,1068.367 c -1.34013,-0.5399 -1.4985,-1.6927 -0.67493,-4.9129 1.82098,-7.1199 6.03029,-13.2228 11.84403,-17.1719 2.29055,-1.5558 2.46806,-1.6268 3.08217,-1.2324 0.35838,0.2302 1.58896,1.0472 2.73462,1.8155 3.08157,2.0666 5.40355,2.7955 9.38101,2.945 5.06075,0.1902 8.34686,-0.8178 12.34047,-3.7855 0.93822,-0.6972 1.85106,-1.2676 2.02852,-1.2676 0.60398,0 4.54294,2.8836 6.34512,4.6451 3.54357,3.4637 6.12897,7.7202 7.55137,12.4325 1.11303,3.6875 1.22253,5.0848 0.47298,6.0363 l -0.61627,0.7824 -26.9338,-0.018 c -14.81362,-0.01 -27.21349,-0.1307 -27.55529,-0.2684 z m 24.93045,-21.07 c -3.58069,-0.52 -7.02606,-2.4237 -9.77496,-5.4013 -5.75315,-6.2315 -5.51402,-15.9472 0.54261,-22.0448 6.50424,-6.5483 16.43026,-6.605 22.90433,-0.1309 3.4075,3.4075 5.02135,7.6169 4.74557,12.3778 -0.255,4.4031 -1.8678,7.8179 -5.13351,10.8691 -3.60943,3.3725 -8.62352,5.0069 -13.28404,4.3301 z"
         id="path3393"
         inkscape:connector-curvature="0" />
      <path
         inkscape:connector-curvature="0"
         id="path3395"
         d="m 259.18719,1079.5111 c -1.32754,-0.5348 -1.48442,-1.6768 -0.66859,-4.8667 1.80387,-7.053 5.97363,-13.0986 11.73274,-17.0106 2.26902,-1.5412 2.44487,-1.6115 3.0532,-1.2208 0.35503,0.2281 1.57404,1.0374 2.70893,1.7984 3.05261,2.0472 5.35278,2.7693 9.29286,2.9174 5.0132,0.1884 8.26844,-0.8101 12.22452,-3.7499 0.9294,-0.6907 1.83366,-1.2558 2.00946,-1.2558 0.5983,0 4.50025,2.8566 6.28549,4.6015 3.51027,3.4311 6.07139,7.6477 7.48042,12.3157 1.10257,3.6528 1.21104,5.037 0.46854,5.9796 l -0.61048,0.775 -26.68073,-0.018 c -14.67441,-0.01 -26.95778,-0.1294 -27.29636,-0.2659 z m 24.69619,-20.872 c -3.54705,-0.5151 -6.96004,-2.4009 -9.68311,-5.3505 -5.69909,-6.173 -5.4622,-15.7974 0.53752,-21.8378 6.44312,-6.4867 16.27586,-6.5428 22.68911,-0.1296 3.37548,3.3755 4.97416,7.5453 4.70098,12.2615 -0.25261,4.3618 -1.85025,7.7444 -5.08528,10.767 -3.57552,3.3408 -8.54249,4.9598 -13.15922,4.2894 z"
         style="fill:#ffffff" />
      <path
         style="fill:#ffffff"
         d="m 103.12638,1167.7075 c -1.18045,-0.4755 -1.31994,-1.491 -0.5945,-4.3274 1.604,-6.2716 5.31175,-11.6473 10.43276,-15.1258 2.01762,-1.3705 2.17398,-1.4331 2.71492,-1.0856 0.31568,0.2028 1.39963,0.9224 2.40878,1.5991 2.71438,1.8204 4.7597,2.4625 8.26322,2.5942 4.45774,0.1675 7.35231,-0.7204 10.87006,-3.3345 0.82643,-0.6141 1.6305,-1.1166 1.78682,-1.1166 0.53201,0 4.00163,2.5401 5.58907,4.0917 3.12133,3.0509 5.39868,6.8003 6.6516,10.9511 0.9804,3.2481 1.07685,4.4789 0.41662,5.317 l -0.54284,0.6892 -23.72454,-0.016 c -13.04851,-0.01 -23.9709,-0.1151 -24.27197,-0.2365 z m 21.95989,-18.5594 c -3.15404,-0.458 -6.18888,-2.1349 -8.61023,-4.7577 -5.06764,-5.489 -4.857,-14.047 0.47796,-19.4181 5.72923,-5.768 14.47252,-5.8179 20.17519,-0.1153 3.00148,3.0015 4.42303,6.7093 4.18012,10.903 -0.22463,3.8784 -1.64525,6.8863 -4.52184,9.574 -3.17935,2.9706 -7.596,4.4103 -11.7012,3.8141 z"
         id="path3405"
         inkscape:connector-curvature="0" />
      <path
         style="fill:#ffffff"
         d="m 177.35435,1079.5111 c -1.32754,-0.5348 -1.48441,-1.6768 -0.66859,-4.8667 1.80387,-7.053 5.97363,-13.0986 11.73275,-17.0106 2.26902,-1.5412 2.44486,-1.6115 3.0532,-1.2208 0.35502,0.2281 1.57403,1.0374 2.70892,1.7984 3.05262,2.0472 5.35278,2.7693 9.29286,2.9174 5.0132,0.1884 8.26844,-0.8101 12.22452,-3.7499 0.9294,-0.6907 1.83367,-1.2558 2.00946,-1.2558 0.5983,0 4.50025,2.8566 6.2855,4.6015 3.51027,3.4311 6.07138,7.6477 7.48042,12.3157 1.10256,3.6528 1.21103,5.037 0.46853,5.9796 l -0.61048,0.775 -26.68072,-0.018 c -14.67442,-0.01 -26.95778,-0.1294 -27.29637,-0.2659 z m 24.69619,-20.872 c -3.54704,-0.5151 -6.96004,-2.4009 -9.68311,-5.3505 -5.69909,-6.173 -5.4622,-15.7974 0.53752,-21.8378 6.44312,-6.4867 16.27587,-6.5428 22.68911,-0.1296 3.37548,3.3755 4.97416,7.5453 4.70098,12.2615 -0.25261,4.3618 -1.85025,7.7444 -5.08528,10.767 -3.57551,3.3408 -8.54249,4.9598 -13.15922,4.2894 z"
         id="path3417"
         inkscape:connector-curvature="0" />
      <g
         style="fill:#b3b3b3"
         id="g3473">
        <rect
           style="opacity:1;fill:#b3b3b3;fill-opacity:1;stroke:none;stroke-width:8;stroke-opacity:1"
           id="rect3419"
           width="2.2548959"
           height="91.418808"
           x="365.67523"
           y="1010.9459" />
        <rect
           y="-415.31848"
           x="1040.3396"
           height="48.992401"
           width="2.2548959"
           id="rect3423"
           style="opacity:1;fill:#b3b3b3;fill-opacity:1;stroke:none;stroke-width:8;stroke-opacity:1"
           transform="matrix(0,1,-1,0,0,0)" />
        <rect
           transform="matrix(0,1,-1,0,0,0)"
           style="opacity:1;fill:#b3b3b3;fill-opacity:1;stroke:none;stroke-width:8;stroke-opacity:1"
           id="rect3425"
           width="2.2548959"
           height="48.992401"
           x="1055.1541"
           y="-366.07355" />
        <rect
           y="-257.98615"
           x="1055.1541"
           height="26.18602"
           width="2.2548959"
           id="rect3427"
           style="opacity:1;fill:#b3b3b3;fill-opacity:1;stroke:none;stroke-width:8;stroke-opacity:1"
           transform="matrix(0,1,-1,0,0,0)" />
        <g
           style="fill:#b3b3b3"
           id="g3442"
           transform="translate(0,17.172593)">
          <rect
             transform="matrix(0,1,-1,0,0,0)"
             style="opacity:1;fill:#b3b3b3;fill-opacity:1;stroke:none;stroke-width:8;stroke-opacity:1"
             id="rect3421"
             width="2.2548959"
             height="487.65112"
             x="1085.201"
             y="-614.41632" />
          <rect
             y="-1096.59"
             x="-128.99083"
             height="11.033731"
             width="2.2548959"
             id="rect3429"
             style="opacity:1;fill:#b3b3b3;fill-opacity:1;stroke:none;stroke-width:8;stroke-opacity:1"
             transform="scale(-1,-1)" />
          <rect
             transform="scale(-1,-1)"
             style="opacity:1;fill:#b3b3b3;fill-opacity:1;stroke:none;stroke-width:8;stroke-opacity:1"
             id="rect3431"
             width="2.2548959"
             height="11.033731"
             x="-223.69263"
             y="-1096.59" />
          <rect
             y="-1096.59"
             x="-320.1622"
             height="11.033731"
             width="2.2548959"
             id="rect3433"
             style="opacity:1;fill:#b3b3b3;fill-opacity:1;stroke:none;stroke-width:8;stroke-opacity:1"
             transform="scale(-1,-1)" />
          <rect
             transform="scale(-1,-1)"
             style="opacity:1;fill:#b3b3b3;fill-opacity:1;stroke:none;stroke-width:8;stroke-opacity:1"
             id="rect3435"
             width="2.2548959"
             height="11.033731"
             x="-418.147"
             y="-1096.59" />
          <rect
             y="-1096.59"
             x="-515.62671"
             height="11.033731"
             width="2.2548959"
             id="rect3437"
             style="opacity:1;fill:#b3b3b3;fill-opacity:1;stroke:none;stroke-width:8;stroke-opacity:1"
             transform="scale(-1,-1)" />
          <rect
             transform="scale(-1,-1)"
             style="opacity:1;fill:#b3b3b3;fill-opacity:1;stroke:none;stroke-width:8;stroke-opacity:1"
             id="rect3440"
             width="2.2548959"
             height="11.033731"
             x="-615.02344"
             y="-1096.59" />
        </g>
      </g>
      <path
         inkscape:connector-curvature="0"
         id="path3457"
         d="m 197.57564,1167.7075 c -1.18045,-0.4755 -1.31994,-1.491 -0.5945,-4.3274 1.604,-6.2716 5.31175,-11.6473 10.43276,-15.1258 2.01762,-1.3705 2.17398,-1.4331 2.71492,-1.0856 0.31568,0.2028 1.39963,0.9224 2.40878,1.5991 2.71438,1.8204 4.7597,2.4625 8.26322,2.5942 4.45774,0.1675 7.35231,-0.7204 10.87006,-3.3345 0.82643,-0.6141 1.6305,-1.1166 1.78682,-1.1166 0.53201,0 4.00163,2.5401 5.58907,4.0917 3.12133,3.0509 5.39868,6.8003 6.6516,10.9511 0.9804,3.2481 1.07685,4.4789 0.41662,5.317 l -0.54284,0.6892 -23.72454,-0.016 c -13.04851,-0.01 -23.9709,-0.1151 -24.27197,-0.2365 z m 21.95989,-18.5594 c -3.15404,-0.458 -6.18888,-2.1349 -8.61023,-4.7577 -5.06764,-5.489 -4.857,-14.047 0.47796,-19.4181 5.72923,-5.768 14.47252,-5.8179 20.17519,-0.1153 3.00148,3.0015 4.42303,6.7093 4.18012,10.903 -0.22463,3.8784 -1.64525,6.8863 -4.52184,9.574 -3.17935,2.9706 -7.596,4.4103 -11.7012,3.8141 z"
         style="fill:#ffffff" />
      <path
         style="fill:#ffffff"
         d="m 294.55028,1167.7075 c -1.18045,-0.4755 -1.31994,-1.491 -0.5945,-4.3274 1.604,-6.2716 5.31175,-11.6473 10.43276,-15.1258 2.01762,-1.3705 2.17398,-1.4331 2.71492,-1.0856 0.31568,0.2028 1.39963,0.9224 2.40878,1.5991 2.71438,1.8204 4.7597,2.4625 8.26322,2.5942 4.45774,0.1675 7.35231,-0.7204 10.87006,-3.3345 0.82643,-0.6141 1.6305,-1.1166 1.78682,-1.1166 0.53201,0 4.00163,2.5401 5.58907,4.0917 3.12133,3.0509 5.39868,6.8003 6.6516,10.9511 0.9804,3.2481 1.07685,4.4789 0.41662,5.317 l -0.54284,0.6892 -23.72454,-0.016 c -13.04851,-0.01 -23.9709,-0.1151 -24.27197,-0.2365 z m 21.95989,-18.5594 c -3.15404,-0.458 -6.18888,-2.1349 -8.61023,-4.7577 -5.06764,-5.489 -4.857,-14.047 0.47796,-19.4181 5.72923,-5.768 14.47252,-5.8179 20.17519,-0.1153 3.00148,3.0015 4.42303,6.7093 4.18012,10.903 -0.22463,3.8784 -1.64525,6.8863 -4.52184,9.574 -3.17935,2.9706 -7.596,4.4103 -11.7012,3.8141 z"
         id="path3459"
         inkscape:connector-curvature="0" />
      <path
         inkscape:connector-curvature="0"
         id="path3461"
         d="m 393.04015,1167.7075 c -1.18045,-0.4755 -1.31994,-1.491 -0.5945,-4.3274 1.604,-6.2716 5.31175,-11.6473 10.43276,-15.1258 2.01762,-1.3705 2.17398,-1.4331 2.71492,-1.0856 0.31568,0.2028 1.39963,0.9224 2.40878,1.5991 2.71438,1.8204 4.7597,2.4625 8.26322,2.5942 4.45774,0.1675 7.35231,-0.7204 10.87006,-3.3345 0.82643,-0.6141 1.6305,-1.1166 1.78682,-1.1166 0.53201,0 4.00163,2.5401 5.58907,4.0917 3.12133,3.0509 5.39868,6.8003 6.6516,10.9511 0.9804,3.2481 1.07685,4.4789 0.41662,5.317 l -0.54284,0.6892 -23.72454,-0.016 c -13.04851,-0.01 -23.9709,-0.1151 -24.27197,-0.2365 z m 21.95989,-18.5594 c -3.15404,-0.458 -6.18888,-2.1349 -8.61023,-4.7577 -5.06764,-5.489 -4.857,-14.047 0.47796,-19.4181 5.72923,-5.768 14.47252,-5.8179 20.17519,-0.1153 3.00148,3.0015 4.42303,6.7093 4.18012,10.903 -0.22463,3.8784 -1.64525,6.8863 -4.52184,9.574 -3.17935,2.9706 -7.596,4.4103 -11.7012,3.8141 z"
         style="fill:#ffffff" />
      <path
         style="fill:#ffffff"
         d="m 489.50972,1167.7075 c -1.18045,-0.4755 -1.31994,-1.491 -0.5945,-4.3274 1.604,-6.2716 5.31175,-11.6473 10.43276,-15.1258 2.01762,-1.3705 2.17398,-1.4331 2.71492,-1.0856 0.31568,0.2028 1.39963,0.9224 2.40878,1.5991 2.71438,1.8204 4.7597,2.4625 8.26322,2.5942 4.45774,0.1675 7.35231,-0.7204 10.87006,-3.3345 0.82643,-0.6141 1.6305,-1.1166 1.78682,-1.1166 0.53201,0 4.00163,2.5401 5.58907,4.0917 3.12133,3.0509 5.39868,6.8003 6.6516,10.9511 0.9804,3.2481 1.07685,4.4789 0.41662,5.317 l -0.54284,0.6892 -23.72454,-0.016 c -13.04851,-0.01 -23.9709,-0.1151 -24.27197,-0.2365 z m 21.95989,-18.5594 c -3.15404,-0.458 -6.18888,-2.1349 -8.61023,-4.7577 -5.06764,-5.489 -4.857,-14.047 0.47796,-19.4181 5.72923,-5.768 14.47252,-5.8179 20.17519,-0.1153 3.00148,3.0015 4.42303,6.7093 4.18012,10.903 -0.22463,3.8784 -1.64525,6.8863 -4.52184,9.574 -3.17935,2.9706 -7.596,4.4103 -11.7012,3.8141 z"
         id="path3463"
         inkscape:connector-curvature="0" />
      <path
         inkscape:connector-curvature="0"
         id="path3465"
         d="m 590.0199,1167.7075 c -1.18045,-0.4755 -1.31994,-1.491 -0.5945,-4.3274 1.604,-6.2716 5.31175,-11.6473 10.43276,-15.1258 2.01762,-1.3705 2.17398,-1.4331 2.71492,-1.0856 0.31568,0.2028 1.39963,0.9224 2.40878,1.5991 2.71438,1.8204 4.7597,2.4625 8.26322,2.5942 4.45774,0.1675 7.35231,-0.7204 10.87006,-3.3345 0.82643,-0.6141 1.6305,-1.1166 1.78682,-1.1166 0.53201,0 4.00163,2.5401 5.58907,4.0917 3.12133,3.0509 5.39868,6.8003 6.6516,10.9511 0.9804,3.2481 1.07685,4.4789 0.41662,5.317 l -0.54284,0.6892 -23.72454,-0.016 c -13.04851,-0.01 -23.9709,-0.1151 -24.27197,-0.2365 z m 21.95989,-18.5594 c -3.15404,-0.458 -6.18888,-2.1349 -8.61023,-4.7577 -5.06764,-5.489 -4.857,-14.047 0.47796,-19.4181 5.72923,-5.768 14.47252,-5.8179 20.17519,-0.1153 3.00148,3.0015 4.42303,6.7093 4.18012,10.903 -0.22463,3.8784 -1.64525,6.8863 -4.52184,9.574 -3.17935,2.9706 -7.596,4.4103 -11.7012,3.8141 z"
         style="fill:#ffffff" />
    </g>
  </g>
</svg>
