<?xml version="1.0" encoding="UTF-8" standalone="no"?>
<!-- Created with Inkscape (http://www.inkscape.org/) -->

<svg
   xmlns:dc="http://purl.org/dc/elements/1.1/"
   xmlns:cc="http://creativecommons.org/ns#"
   xmlns:rdf="http://www.w3.org/1999/02/22-rdf-syntax-ns#"
   xmlns:svg="http://www.w3.org/2000/svg"
   xmlns="http://www.w3.org/2000/svg"
   xmlns:sodipodi="http://sodipodi.sourceforge.net/DTD/sodipodi-0.dtd"
   xmlns:inkscape="http://www.inkscape.org/namespaces/inkscape"
   width="210mm"
   height="297mm"
   viewBox="0 0 744.09448819 1052.3622047"
   id="svg2"
   version="1.1"
   inkscape:version="0.91 r13725"
   sodipodi:docname="vector.svg">
  <defs
     id="defs4" />
  <sodipodi:namedview
     id="base"
     pagecolor="#ffffff"
     bordercolor="#666666"
     borderopacity="1.0"
     inkscape:pageopacity="0.0"
     inkscape:pageshadow="2"
     inkscape:zoom="1.4"
     inkscape:cx="1450.1988"
     inkscape:cy="571.13159"
     inkscape:document-units="px"
     inkscape:current-layer="layer1"
     showgrid="false"
     inkscape:window-width="1366"
     inkscape:window-height="705"
     inkscape:window-x="-8"
     inkscape:window-y="-8"
     inkscape:window-maximized="1" />
  <metadata
     id="metadata7">
    <rdf:RDF>
      <cc:Work
         rdf:about="">
        <dc:format>image/svg+xml</dc:format>
        <dc:type
           rdf:resource="http://purl.org/dc/dcmitype/StillImage" />
        <dc:title />
      </cc:Work>
    </rdf:RDF>
  </metadata>
  <g
     inkscape:label="Layer 1"
     inkscape:groupmode="layer"
     id="layer1">
    <g
       id="g3353"
       transform="translate(1305.7143,-11.271054)">
      <rect
         y="15.219348"
         x="-497.14285"
         height="350"
         width="900"
         id="rect3347"
         style="opacity:1;fill:#fc7368;fill-opacity:1;stroke:none;stroke-width:8;stroke-opacity:1" />
      <text
         sodipodi:linespacing="125%"
         id="text3349"
         y="278.33597"
         x="-111.04475"
         style="font-style:normal;font-weight:normal;font-size:284.19348145px;line-height:125%;font-family:sans-serif;letter-spacing:0px;word-spacing:0px;fill:#ffffff;fill-opacity:1;stroke:none;stroke-width:1px;stroke-linecap:butt;stroke-linejoin:miter;stroke-opacity:1"
         xml:space="preserve"><tspan
           style="font-style:normal;font-variant:normal;font-weight:normal;font-stretch:normal;font-family:'Tw Cen MT';-inkscape-font-specification:'Tw Cen MT';fill:#ffffff"
           y="278.33597"
           x="-111.04475"
           id="tspan3351"
           sodipodi:role="line">1</tspan></text>
    </g>
    <g
       id="g3405"
       transform="matrix(0.22483629,0,0,0.22483629,1238.7126,321.24533)">
      <rect
         y="406.64792"
         x="-140"
         height="605.71429"
         width="562.85712"
         id="rect3403"
         style="opacity:1;fill:#ffffff;fill-opacity:1;stroke:none;stroke-width:8;stroke-opacity:1" />
      <path
         style="fill:#fc7368;fill-opacity:1"
         d="m -296.15004,1199.3586 c -12.26077,-0.2101 -30.75,-1.8899 -30.75,-2.7937 0,-0.1296 2.26125,-2.1661 5.025,-4.5256 5.72887,-4.8909 17.93047,-16.9453 22.67909,-22.4055 31.98775,-36.7812 51.5614,-83.0762 57.93301,-137.0216 2.86146,-24.2263 2.86257,-51.71054 0.003,-72.11474 l -0.43653,-3.1146 -2.8119,-4.6854 c -38.35125,-63.902 -61.08133,-134.9866 -66.92133,-209.2853 -1.08195,-13.765 -1.21755,-17.9533 -1.21894,-37.65 -0.002,-19.6652 0.1557,-24.6241 1.21163,-38.25 4.35747,-56.2294 18.74281,-111.9036 42.05207,-162.75 3.56433,-7.7752 11.05122,-22.6767 15.14802,-30.15 48.32517,-88.1529 122.56329,-158.58066 212.999879,-202.06737 68.130451,-32.76076 143.278441,-48.87071 219.537001,-47.06356 32.25132,0.76428 62.02077,4.30306 92.25,10.96601 50.8371,11.20521 98.4864,30.09356 142.95,56.66582 56.70975,33.89085 106.10781,79.3903 144.53817,133.131 69.61695,97.3519 99.94503,215.268 86.28261,335.4681 -7.68705,67.6294 -30.32205,134.048 -65.55996,192.3746 -34.59285,57.25884 -80.84712,106.79714 -135.41082,145.02484 -65.25441,45.7177 -140.892,74.3913 -220.2,83.4761 -84.23118,9.6487 -169.53789,-2.8222 -246.000001,-35.9625 -3.3,-1.4303 -6.81,-2.7926 -7.8,-3.0273 -5.02302,-1.191 -9.61197,0.014 -14.82036,3.8922 -17.6226,13.1212 -52.8606,25.5437 -99.179639,34.9638 -39.98565,8.132 -82.00791,13.9164 -116.61825,16.0527 -6.71097,0.4142 -28.61577,1.1308 -30.08175,0.9841 -0.33,-0.033 -2.49,-0.092 -4.8,-0.1321 z m 359.25,-224.44744 c 15.30474,-3.6076 27.02823,-14.217 31.93731,-28.9022 0.56937,-1.7032 1.25265,-4.4468 1.51845,-6.0968 0.2658,-1.65 2.27976,-23.6062 4.47549,-48.7917 2.1957,-25.1854 4.08489,-45.9417 4.19817,-46.125 0.14949,-0.2419 12.01188,-0.3333 43.2477,-0.3333 36.47385,0 43.06614,0.064 43.20177,0.4171 0.088,0.2294 -1.46682,19.0957 -3.45522,41.925 -1.9884,22.8294 -3.69714,42.4529 -3.79722,43.6079 -0.25335,2.9242 0.37041,8.6798 1.36554,12.6 3.10743,12.2414 11.67057,22.761 22.95801,28.2034 7.10523,3.4258 12.51204,4.5137 21.15,4.2555 6.04374,-0.1808 8.50923,-0.6076 13.35,-2.3112 14.80437,-5.2101 25.89903,-18.534 28.34526,-34.0406 0.15678,-0.9939 2.04024,-21.9896 4.18545,-46.6571 2.14518,-24.6675 4.00587,-45.525 4.13481,-46.35 l 0.23448,-1.5 39.45,-0.1621 39.45,-0.1621 2.99001,-0.6823 c 13.93818,-3.1808 25.29699,-12.4982 30.80133,-25.2656 2.73723,-6.3491 3.71844,-11.9085 3.46422,-19.6279 -0.18387,-5.5826 -0.5817,-7.8986 -2.18691,-12.7321 -2.19402,-6.6062 -5.92116,-12.4391 -11.16408,-17.4714 -4.95876,-4.7596 -10.10577,-7.8451 -16.65498,-9.9842 -6.17367,-2.0165 -4.97187,-1.9623 -43.46187,-1.9623 -29.48607,0 -34.78095,-0.064 -34.91745,-0.4192 -0.1938,-0.5051 7.24446,-85.8192 7.52139,-86.2673 0.13263,-0.2146 9.67404,-0.3137 30.25104,-0.3143 19.96998,0 30.96342,-0.1113 32.7573,-0.3301 18.19305,-2.2181 33.15207,-16.0031 37.0935,-34.1821 0.58215,-2.6849 0.68205,-4.0449 0.69333,-9.437 0.0147,-7.0789 -0.32331,-9.386 -2.1543,-14.7 -2.27229,-6.5946 -5.91027,-12.2656 -11.07423,-17.2627 -4.87353,-4.7161 -10.05432,-7.8285 -16.67736,-10.0189 -6.36624,-2.1056 -5.76534,-2.069 -36.00594,-2.1948 -25.27719,-0.1051 -27.22494,-0.1494 -27.22401,-0.6184 0,-0.2778 1.61274,-18.9327 3.58266,-41.4552 1.96995,-22.5225 3.67146,-42.0975 3.78114,-43.5 0.56064,-7.1681 -1.73244,-16.8176 -5.6049,-23.5857 -5.17098,-9.0377 -14.17662,-16.4509 -23.95989,-19.7229 -4.84845,-1.6216 -8.09136,-2.0994 -14.25,-2.0994 -6.15864,0 -9.40155,0.4778 -14.25,2.0994 -9.69987,3.2442 -18.37788,10.3152 -23.74332,19.3466 -2.51712,4.2369 -4.56825,9.9892 -5.33505,14.962 -0.16539,1.0725 -2.06046,22.2 -4.21125,46.95 -2.15079,24.75 -3.98628,45.5738 -4.07883,46.275 l -0.1683,1.275 -43.33164,0 c -42.1932,0 -43.33161,-0.015 -43.33161,-0.5634 0,-0.3098 1.63932,-19.1086 3.64293,-41.775 3.89769,-44.0934 4.09107,-47.3544 3.12888,-52.7616 -1.57764,-8.8661 -5.65065,-16.6147 -12.15309,-23.1205 -6.42387,-6.4272 -13.19781,-10.0894 -22.21872,-12.012 -4.24077,-0.9038 -12.789,-0.9738 -17.1,-0.14 -9.11064,1.7621 -16.17828,5.5306 -22.81008,12.1624 -6.59772,6.5978 -10.24044,13.3574 -11.96895,22.2101 -0.39897,2.0434 -1.98597,18.9595 -4.51722,48.15 -2.1462,24.75 -3.98181,45.6347 -4.07913,46.4105 l -0.17691,1.4104 -38.7488714,0.1021 c -35.7173696,0.094 -38.9717996,0.144 -41.5988396,0.6392 -3.37593,0.6363 -8.11233,2.1595 -11.31201,3.6379 -5.56698,2.5721 -12.15762,8.0081 -16.14975,13.3204 -3.5253,4.6912 -6.53616,11.4584 -7.82133,17.5795 -0.87078,4.1473 -0.79524,14.1254 0.13959,18.437 3.94143,18.179 18.90045,31.964 37.0935,34.1821 1.81239,0.221 13.82298,0.3295 36.5344196,0.3301 28.2896414,0 33.8601314,0.068 33.9913514,0.4098 0.18822,0.4905 -7.25505,85.853 -7.524,86.2881 -0.12402,0.2007 -10.64103,0.3029 -31.1666114,0.3029 -34.3071296,0 -33.5648096,-0.037 -39.6847496,1.9623 -6.54921,2.1392 -11.69622,5.2246 -16.65498,9.9842 -5.24292,5.0323 -8.97006,10.8652 -11.16408,17.4714 -1.60521,4.8335 -2.00304,7.1495 -2.18691,12.7321 -0.25422,7.7194 0.72699,13.2788 3.46422,19.6279 5.10168,11.8335 15.35754,20.8482 27.84804,24.4781 5.47857,1.5922 6.58818,1.644 35.1662096,1.644 21.9223214,0 26.4725114,0.069 26.6013014,0.4049 0.0855,0.2228 -1.49586,19.089 -3.51408,41.925 -4.0398604,45.7111 -4.1517604,47.7095 -3.00084,53.599 3.61341,18.4904 18.08574,32.1402 37.09071,34.9825 0.495,0.074 3.6675,0.091 7.05,0.037 4.84593,-0.077 6.69072,-0.2254 8.7,-0.699 z m 49.91391,-218.5849 c -0.2022,-0.5269 7.22964,-85.7682 7.51854,-86.2357 0.14547,-0.2354 12.39111,-0.3284 43.24467,-0.3284 36.81504,0 43.06527,0.061 43.20447,0.4241 0.19605,0.5109 -7.24089,85.8056 -7.521,86.2588 -0.13626,0.2204 -13.31769,0.3171 -43.23771,0.3171 -37.36317,0 -43.06377,-0.058 -43.20897,-0.4359 z"
         id="path3388"
         inkscape:connector-curvature="0" />
    </g>
    <g
       id="g4244"
       inkscape:export-filename="C:\xampp\htdocs\comprofila\assets\img\highlights.png"
       inkscape:export-xdpi="90"
       inkscape:export-ydpi="90">
      <rect
         y="375.93365"
         x="812.85712"
         height="150"
         width="313"
         id="rect3420"
         style="opacity:1;fill:#e6e6e6;fill-opacity:1;stroke:none;stroke-width:8;stroke-opacity:1" />
      <text
         sodipodi:linespacing="125%"
         id="text3422"
         y="461.99811"
         x="968.23407"
         style="font-style:normal;font-weight:normal;font-size:40px;line-height:125%;font-family:sans-serif;letter-spacing:0px;word-spacing:0px;fill:#fc7368;fill-opacity:1;stroke:none;stroke-width:1px;stroke-linecap:butt;stroke-linejoin:miter;stroke-opacity:1"
         xml:space="preserve"><tspan
           y="461.99811"
           x="968.23407"
           id="tspan3424"
           sodipodi:role="line"
           style="text-align:center;text-anchor:middle">Highlights</tspan></text>
    </g>
    <rect
       style="opacity:1;fill:#ff0000;fill-opacity:0;stroke:none;stroke-width:8;stroke-opacity:1"
       id="rect3439"
       width="725.71429"
       height="520"
       x="-485.71429"
       y="-179.06636" />
    <g
       id="g3359"
       inkscape:export-xdpi="90"
       inkscape:export-ydpi="90">
      <rect
         y="379.10315"
         x="1428.3557"
         height="150"
         width="150"
         id="rect3353"
         style="opacity:1;fill:#fc7368;fill-opacity:1;stroke:none;stroke-width:8;stroke-opacity:1" />
      <text
         sodipodi:linespacing="125%"
         id="text3355"
         y="468.43909"
         x="1463.4143"
         style="font-style:normal;font-weight:normal;font-size:40px;line-height:125%;font-family:sans-serif;letter-spacing:0px;word-spacing:0px;fill:#ffffff;fill-opacity:1;stroke:none;stroke-width:1px;stroke-linecap:butt;stroke-linejoin:miter;stroke-opacity:1"
         xml:space="preserve"><tspan
           y="468.43909"
           x="1463.4143"
           id="tspan3357"
           sodipodi:role="line">unit</tspan></text>
    </g>
  </g>
</svg>
